<?xml version="1.0" encoding="UTF-8" standalone="no"?>
<!DOCTYPE svg PUBLIC "-//W3C//DTD SVG 1.1//EN"
 "http://www.w3.org/Graphics/SVG/1.1/DTD/svg11.dtd">
<!-- Generated by graphviz version 2.43.0 (0)
 -->
<!-- Title: treeSitterGLR1 Pages: 1 -->
<svg width="939pt" height="124pt"
 viewBox="0.00 0.00 938.72 124.04" xmlns="http://www.w3.org/2000/svg" xmlns:xlink="http://www.w3.org/1999/xlink">
<g id="graph0" class="graph" transform="scale(1 1) rotate(0) translate(4 120.04)">
<title>treeSitterGLR1</title>
<polygon fill="white" stroke="transparent" points="-4,4 -4,-120.04 934.72,-120.04 934.72,4 -4,4"/>
<!-- first -->
<g id="node1" class="node">
<title>first</title>
<ellipse fill="none" stroke="black" cx="27" cy="-48.04" rx="27" ry="24.08"/>
<text text-anchor="middle" x="27" y="-41.84" font-family="roboto" font-size="24.00">1</text>
</g>
<!-- second -->
<g id="node2" class="node">
<title>second</title>
<ellipse fill="none" stroke="black" cx="232.23" cy="-48.04" rx="33.47" ry="24.08"/>
<text text-anchor="middle" x="232.23" y="-41.84" font-family="roboto" font-size="24.00">34</text>
</g>
<!-- first&#45;&gt;second -->
<g id="edge1" class="edge">
<title>first&#45;&gt;second</title>
<path fill="none" stroke="black" stroke-width="3" d="M54.15,-48.04C91.14,-48.04 158.68,-48.04 198.81,-48.04"/>
<text text-anchor="middle" x="126.5" y="-54.84" font-family="roboto" font-size="24.00">identifier</text>
</g>
<!-- third -->
<g id="node3" class="node">
<title>third</title>
<ellipse fill="none" stroke="black" cx="376.92" cy="-48.04" rx="54.39" ry="24.08"/>
<text text-anchor="middle" x="376.92" y="-41.84" font-family="roboto" font-size="24.00">1890</text>
</g>
<!-- second&#45;&gt;third -->
<g id="edge2" class="edge">
<title>second&#45;&gt;third</title>
<path fill="none" stroke="black" stroke-width="3" d="M265.61,-48.04C282.38,-48.04 303.3,-48.04 322.4,-48.04"/>
<text text-anchor="middle" x="293.97" y="-54.84" font-family="roboto" font-size="24.00">=</text>
</g>
<!-- fourth -->
<g id="node4" class="node">
<title>fourth</title>
<ellipse fill="none" stroke="black" cx="504.36" cy="-48.04" rx="27" ry="24.08"/>
<text text-anchor="middle" x="504.36" y="-41.84" font-family="roboto" font-size="24.00">9</text>
</g>
<!-- third&#45;&gt;fourth -->
<g id="edge3" class="edge">
<title>third&#45;&gt;fourth</title>
<path fill="none" stroke="black" stroke-width="3" d="M431.48,-48.04C447.33,-48.04 463.98,-48.04 477.25,-48.04"/>
<text text-anchor="middle" x="454.36" y="-54.84" font-family="roboto" font-size="24.00">(</text>
</g>
<!-- fifth -->
<g id="node5" class="node">
<title>fifth</title>
<ellipse fill="none" stroke="black" cx="753.2" cy="-90.04" rx="43.68" ry="24.08"/>
<text text-anchor="middle" x="753.2" y="-83.84" font-family="roboto" font-size="24.00">579</text>
</g>
<!-- fourth&#45;&gt;fifth -->
<g id="edge4" class="edge">
<title>fourth&#45;&gt;fifth</title>
<path fill="none" stroke="black" stroke-width="3" d="M530.4,-54.73C536.57,-56.26 543.19,-57.8 549.36,-59.04 604.55,-70.13 668.88,-79.34 710.05,-84.77"/>
<text text-anchor="middle" x="620.36" y="-88.84" font-family="roboto" font-size="24.00">identifier</text>
</g>
<!-- seventh -->
<g id="node6" class="node">
<title>seventh</title>
<ellipse fill="none" stroke="black" cx="753.2" cy="-24.04" rx="43.68" ry="24.08"/>
<text text-anchor="middle" x="753.2" y="-17.84" font-family="roboto" font-size="24.00">804</text>
</g>
<!-- fourth&#45;&gt;seventh -->
<g id="edge5" class="edge">
<title>fourth&#45;&gt;seventh</title>
<path fill="none" stroke="black" stroke-width="3" d="M529.24,-38.53C535.67,-36.35 542.7,-34.3 549.36,-33.04 603.92,-22.75 668.12,-21.72 709.45,-22.44"/>
<text text-anchor="middle" x="620.36" y="-39.84" font-family="roboto" font-size="24.00">_expression</text>
</g>
<!-- sixth -->
<g id="node7" class="node">
<title>sixth</title>
<ellipse fill="none" stroke="black" cx="886.88" cy="-90.04" rx="43.68" ry="24.08"/>
<text text-anchor="middle" x="886.88" y="-83.84" font-family="roboto" font-size="24.00">309</text>
</g>
<!-- fifth&#45;&gt;sixth -->
<g id="edge6" class="edge">
<title>fifth&#45;&gt;sixth</title>
<path fill="none" stroke="black" stroke-width="3" d="M797.32,-90.04C811.87,-90.04 828.11,-90.04 842.67,-90.04"/>
<text text-anchor="middle" x="820.04" y="-96.84" font-family="roboto" font-size="24.00">)</text>
</g>
</g>
</svg>
