<?xml version="1.0" encoding="UTF-8" standalone="no"?>
<!DOCTYPE svg PUBLIC "-//W3C//DTD SVG 1.1//EN"
 "http://www.w3.org/Graphics/SVG/1.1/DTD/svg11.dtd">
<!-- Generated by graphviz version 2.43.0 (0)
 -->
<!-- Title: treeSitterGLR3 Pages: 1 -->
<svg width="1172pt" height="122pt"
 viewBox="0.00 0.00 1172.19 122.08" xmlns="http://www.w3.org/2000/svg" xmlns:xlink="http://www.w3.org/1999/xlink">
<g id="graph0" class="graph" transform="scale(1 1) rotate(0) translate(4 118.08)">
<title>treeSitterGLR3</title>
<polygon fill="white" stroke="transparent" points="-4,4 -4,-118.08 1168.19,-118.08 1168.19,4 -4,4"/>
<!-- first -->
<g id="node1" class="node">
<title>first</title>
<ellipse fill="none" stroke="black" cx="27" cy="-57.04" rx="27" ry="24.08"/>
<text text-anchor="middle" x="27" y="-50.84" font-family="roboto" font-size="24.00">1</text>
</g>
<!-- second -->
<g id="node2" class="node">
<title>second</title>
<ellipse fill="none" stroke="black" cx="232.23" cy="-57.04" rx="33.47" ry="24.08"/>
<text text-anchor="middle" x="232.23" y="-50.84" font-family="roboto" font-size="24.00">34</text>
</g>
<!-- first&#45;&gt;second -->
<g id="edge1" class="edge">
<title>first&#45;&gt;second</title>
<path fill="none" stroke="black" stroke-width="3" d="M54.15,-57.04C91.14,-57.04 158.68,-57.04 198.81,-57.04"/>
<text text-anchor="middle" x="126.5" y="-63.84" font-family="roboto" font-size="24.00">identifier</text>
</g>
<!-- third -->
<g id="node3" class="node">
<title>third</title>
<ellipse fill="none" stroke="black" cx="376.92" cy="-57.04" rx="54.39" ry="24.08"/>
<text text-anchor="middle" x="376.92" y="-50.84" font-family="roboto" font-size="24.00">1890</text>
</g>
<!-- second&#45;&gt;third -->
<g id="edge2" class="edge">
<title>second&#45;&gt;third</title>
<path fill="none" stroke="black" stroke-width="3" d="M265.61,-57.04C282.38,-57.04 303.3,-57.04 322.4,-57.04"/>
<text text-anchor="middle" x="293.97" y="-63.84" font-family="roboto" font-size="24.00">=</text>
</g>
<!-- fourth -->
<g id="node4" class="node">
<title>fourth</title>
<ellipse fill="none" stroke="black" cx="731.6" cy="-90.04" rx="33.47" ry="24.08"/>
<text text-anchor="middle" x="731.6" y="-83.84" font-family="roboto" font-size="24.00">51</text>
</g>
<!-- third&#45;&gt;fourth -->
<g id="edge3" class="edge">
<title>third&#45;&gt;fourth</title>
<path fill="none" stroke="black" stroke-width="3" d="M430.33,-61.95C504.4,-68.88 637.45,-81.33 698.45,-87.03"/>
<text text-anchor="middle" x="564.86" y="-91.84" font-family="roboto" font-size="24.00">formal_parameters</text>
</g>
<!-- fifth -->
<g id="node5" class="node">
<title>fifth</title>
<ellipse fill="none" stroke="black" cx="731.6" cy="-24.04" rx="27" ry="24.08"/>
<text text-anchor="middle" x="731.6" y="-17.84" font-family="roboto" font-size="24.00">9</text>
</g>
<!-- third&#45;&gt;fifth -->
<g id="edge4" class="edge">
<title>third&#45;&gt;fifth</title>
<path fill="none" stroke="black" stroke-width="3" d="M418.99,-41.69C428.81,-38.62 439.35,-35.8 449.36,-34.04 542,-17.81 654.34,-20.33 704.37,-22.59"/>
<text text-anchor="middle" x="564.86" y="-40.84" font-family="roboto" font-size="24.00">(</text>
</g>
<!-- sixth -->
<g id="node6" class="node">
<title>sixth</title>
<ellipse fill="none" stroke="black" cx="986.67" cy="-24.04" rx="43.68" ry="24.08"/>
<text text-anchor="middle" x="986.67" y="-17.84" font-family="roboto" font-size="24.00">804</text>
</g>
<!-- fifth&#45;&gt;sixth -->
<g id="edge5" class="edge">
<title>fifth&#45;&gt;sixth</title>
<path fill="none" stroke="black" stroke-width="3" d="M758.73,-24.04C802.17,-24.04 889.68,-24.04 942.44,-24.04"/>
<text text-anchor="middle" x="853.83" y="-30.84" font-family="roboto" font-size="24.00">_expression</text>
</g>
<!-- seventh -->
<g id="node7" class="node">
<title>seventh</title>
<ellipse fill="none" stroke="black" cx="1120.35" cy="-24.04" rx="43.68" ry="24.08"/>
<text text-anchor="middle" x="1120.35" y="-17.84" font-family="roboto" font-size="24.00">806</text>
</g>
<!-- sixth&#45;&gt;seventh -->
<g id="edge6" class="edge">
<title>sixth&#45;&gt;seventh</title>
<path fill="none" stroke="black" stroke-width="3" d="M1030.79,-24.04C1045.34,-24.04 1061.58,-24.04 1076.14,-24.04"/>
<text text-anchor="middle" x="1053.51" y="-30.84" font-family="roboto" font-size="24.00">)</text>
</g>
</g>
</svg>
