<?xml version="1.0" encoding="UTF-8" standalone="no"?>
<!DOCTYPE svg PUBLIC "-//W3C//DTD SVG 1.1//EN"
 "http://www.w3.org/Graphics/SVG/1.1/DTD/svg11.dtd">
<!-- Generated by graphviz version 2.43.0 (0)
 -->
<!-- Title: treeSitterParse2 Pages: 1 -->
<svg width="364pt" height="230pt"
 viewBox="0.00 0.00 364.00 230.08" xmlns="http://www.w3.org/2000/svg" xmlns:xlink="http://www.w3.org/1999/xlink">
<g id="graph0" class="graph" transform="scale(1 1) rotate(0) translate(4 226.08)">
<title>treeSitterParse2</title>
<polygon fill="white" stroke="transparent" points="-4,4 -4,-226.08 360,-226.08 360,4 -4,4"/>
<g id="clust1" class="cluster">
<title>cluster_1</title>
<polygon fill="none" stroke="black" points="8,-8 8,-214.08 222,-214.08 222,-8 8,-8"/>
<text text-anchor="middle" x="115" y="-190.88" font-family="roboto" font-size="24.00">product</text>
</g>
<!-- v1 -->
<g id="node1" class="node">
<title>v1</title>
<ellipse fill="none" stroke="black" cx="43" cy="-40.04" rx="27" ry="24.08"/>
<text text-anchor="middle" x="43" y="-33.84" font-family="roboto" font-size="24.00">x</text>
</g>
<!-- product -->
<g id="node2" class="node">
<title>product</title>
<ellipse fill="none" stroke="black" cx="115" cy="-154.08" rx="27" ry="18"/>
</g>
<!-- product&#45;&gt;v1 -->
<g id="edge1" class="edge">
<title>product&#45;&gt;v1</title>
<path fill="none" stroke="black" stroke-width="3" d="M104.68,-137.03C93.46,-119.56 75.27,-91.26 61.55,-69.91"/>
<polygon fill="black" stroke="black" stroke-width="3" points="64.33,-67.76 55.98,-61.24 58.44,-71.54 64.33,-67.76"/>
</g>
<!-- star -->
<g id="node3" class="node">
<title>star</title>
<ellipse fill="none" stroke="black" cx="115" cy="-40.04" rx="27" ry="24.08"/>
<text text-anchor="middle" x="115" y="-33.84" font-family="roboto" font-size="24.00">*</text>
</g>
<!-- product&#45;&gt;star -->
<g id="edge2" class="edge">
<title>product&#45;&gt;star</title>
<path fill="none" stroke="black" stroke-width="3" d="M115,-136.07C115,-119.8 115,-94.83 115,-74.57"/>
<polygon fill="black" stroke="black" stroke-width="3" points="118.5,-74.47 115,-64.47 111.5,-74.47 118.5,-74.47"/>
</g>
<!-- v2 -->
<g id="node4" class="node">
<title>v2</title>
<ellipse fill="none" stroke="black" cx="187" cy="-40.04" rx="27" ry="24.08"/>
<text text-anchor="middle" x="187" y="-33.84" font-family="roboto" font-size="24.00">y</text>
</g>
<!-- product&#45;&gt;v2 -->
<g id="edge3" class="edge">
<title>product&#45;&gt;v2</title>
<path fill="none" stroke="black" stroke-width="3" d="M125.32,-137.03C136.54,-119.56 154.73,-91.26 168.45,-69.91"/>
<polygon fill="black" stroke="black" stroke-width="3" points="171.56,-71.54 174.02,-61.24 165.67,-67.76 171.56,-71.54"/>
</g>
<!-- plus -->
<g id="node5" class="node">
<title>plus</title>
<polygon fill="none" stroke="black" points="284,-172.08 230,-172.08 230,-136.08 284,-136.08 284,-172.08"/>
<text text-anchor="middle" x="257" y="-147.88" font-family="roboto" font-size="24.00">+</text>
</g>
<!-- v3 -->
<g id="node6" class="node">
<title>v3</title>
<polygon fill="none" stroke="black" points="356,-172.08 302,-172.08 302,-136.08 356,-136.08 356,-172.08"/>
<text text-anchor="middle" x="329" y="-147.88" font-family="roboto" font-size="24.00">z</text>
</g>
</g>
</svg>
