<?xml version="1.0" encoding="UTF-8" standalone="no"?>
<!DOCTYPE svg PUBLIC "-//W3C//DTD SVG 1.1//EN"
 "http://www.w3.org/Graphics/SVG/1.1/DTD/svg11.dtd">
<!-- Generated by graphviz version 2.43.0 (0)
 -->
<!-- Title: treeSitterGLRError1 Pages: 1 -->
<svg width="498pt" height="308pt"
 viewBox="0.00 0.00 498.27 308.33" xmlns="http://www.w3.org/2000/svg" xmlns:xlink="http://www.w3.org/1999/xlink">
<g id="graph0" class="graph" transform="scale(1 1) rotate(0) translate(4 304.33)">
<title>treeSitterGLRError1</title>
<polygon fill="white" stroke="transparent" points="-4,4 -4,-304.33 494.27,-304.33 494.27,4 -4,4"/>
<!-- program -->
<g id="node1" class="node">
<title>program</title>
<ellipse fill="none" stroke="black" cx="251.36" cy="-276.29" rx="84.29" ry="24.08"/>
<text text-anchor="middle" x="251.36" y="-270.09" font-family="roboto" font-size="24.00">program</text>
</g>
<!-- for -->
<g id="node2" class="node">
<title>for</title>
<ellipse fill="none" stroke="black" cx="159.36" cy="-192.21" rx="132.46" ry="24.08"/>
<text text-anchor="middle" x="159.36" y="-186.01" font-family="roboto" font-size="24.00">for_statement</text>
</g>
<!-- program&#45;&gt;for -->
<g id="edge1" class="edge">
<title>program&#45;&gt;for</title>
<path fill="none" stroke="black" stroke-width="3" d="M226.7,-253.29C213.71,-241.71 197.81,-227.52 184.72,-215.84"/>
</g>
<!-- end -->
<g id="node3" class="node">
<title>end</title>
<text text-anchor="middle" x="343.36" y="-186.01" font-family="roboto" font-size="24.00">END</text>
</g>
<!-- program&#45;&gt;end -->
<g id="edge2" class="edge">
<title>program&#45;&gt;end</title>
<path fill="none" stroke="black" stroke-width="3" d="M276.01,-253.29C291.13,-239.81 310.19,-222.8 324.18,-210.32"/>
</g>
<!-- keyword_for -->
<g id="node4" class="node">
<title>keyword_for</title>
<ellipse fill="none" stroke="black" cx="35.36" cy="-108.12" rx="35.21" ry="24.08"/>
<text text-anchor="middle" x="35.36" y="-101.92" font-family="roboto" font-size="24.00">for</text>
</g>
<!-- for&#45;&gt;keyword_for -->
<g id="edge3" class="edge">
<title>for&#45;&gt;keyword_for</title>
<path fill="none" stroke="black" stroke-width="3" d="M125.47,-168.78C104.82,-155.11 78.89,-137.94 60.15,-125.54"/>
</g>
<!-- error -->
<g id="node5" class="node">
<title>error</title>
<ellipse fill="none" stroke="black" cx="159.36" cy="-108.12" rx="70.92" ry="24.08"/>
<text text-anchor="middle" x="159.36" y="-101.92" font-family="roboto" font-size="24.00">ERROR</text>
</g>
<!-- for&#45;&gt;error -->
<g id="edge4" class="edge">
<title>for&#45;&gt;error</title>
<path fill="none" stroke="black" stroke-width="3" d="M159.36,-167.91C159.36,-156.72 159.36,-143.36 159.36,-132.2"/>
</g>
<!-- etc -->
<g id="node6" class="node">
<title>etc</title>
<ellipse fill="none" stroke="black" cx="369.36" cy="-108.12" rx="120.83" ry="24.08"/>
<text text-anchor="middle" x="369.36" y="-101.92" font-family="roboto" font-size="24.00">... omitted ...</text>
</g>
<!-- for&#45;&gt;etc -->
<g id="edge5" class="edge">
<title>for&#45;&gt;etc</title>
<path fill="none" stroke="black" stroke-width="3" d="M213.16,-170.18C244.88,-157.78 284.85,-142.16 316.41,-129.82"/>
</g>
<!-- if -->
<g id="node7" class="node">
<title>if</title>
<ellipse fill="none" stroke="black" cx="159.36" cy="-24.04" rx="27" ry="24.08"/>
<text text-anchor="middle" x="159.36" y="-17.84" font-family="roboto" font-size="24.00">if</text>
</g>
<!-- error&#45;&gt;if -->
<g id="edge6" class="edge">
<title>error&#45;&gt;if</title>
<path fill="none" stroke="black" stroke-width="3" d="M159.36,-83.82C159.36,-72.64 159.36,-59.27 159.36,-48.12"/>
</g>
</g>
</svg>
