<?xml version="1.0" encoding="UTF-8" standalone="no"?>
<!DOCTYPE svg PUBLIC "-//W3C//DTD SVG 1.1//EN"
 "http://www.w3.org/Graphics/SVG/1.1/DTD/svg11.dtd">
<!-- Generated by graphviz version 2.43.0 (0)
 -->
<!-- Title: treeSitterGLR0 Pages: 1 -->
<svg width="772pt" height="58pt"
 viewBox="0.00 0.00 772.04 58.04" xmlns="http://www.w3.org/2000/svg" xmlns:xlink="http://www.w3.org/1999/xlink">
<g id="graph0" class="graph" transform="scale(1 1) rotate(0) translate(4 54.04)">
<title>treeSitterGLR0</title>
<polygon fill="white" stroke="transparent" points="-4,4 -4,-54.04 768.04,-54.04 768.04,4 -4,4"/>
<!-- first -->
<g id="node1" class="node">
<title>first</title>
<ellipse fill="none" stroke="black" cx="27" cy="-24.04" rx="27" ry="24.08"/>
<text text-anchor="middle" x="27" y="-17.84" font-family="roboto" font-size="24.00">1</text>
</g>
<!-- second -->
<g id="node2" class="node">
<title>second</title>
<ellipse fill="none" stroke="black" cx="232.23" cy="-24.04" rx="33.47" ry="24.08"/>
<text text-anchor="middle" x="232.23" y="-17.84" font-family="roboto" font-size="24.00">34</text>
</g>
<!-- first&#45;&gt;second -->
<g id="edge1" class="edge">
<title>first&#45;&gt;second</title>
<path fill="none" stroke="black" stroke-width="3" d="M54.15,-24.04C91.14,-24.04 158.68,-24.04 198.81,-24.04"/>
<text text-anchor="middle" x="126.5" y="-30.84" font-family="roboto" font-size="24.00">identifier</text>
</g>
<!-- third -->
<g id="node3" class="node">
<title>third</title>
<ellipse fill="none" stroke="black" cx="376.92" cy="-24.04" rx="54.39" ry="24.08"/>
<text text-anchor="middle" x="376.92" y="-17.84" font-family="roboto" font-size="24.00">1890</text>
</g>
<!-- second&#45;&gt;third -->
<g id="edge2" class="edge">
<title>second&#45;&gt;third</title>
<path fill="none" stroke="black" stroke-width="3" d="M265.61,-24.04C282.38,-24.04 303.3,-24.04 322.4,-24.04"/>
<text text-anchor="middle" x="293.97" y="-30.84" font-family="roboto" font-size="24.00">=</text>
</g>
<!-- fourth -->
<g id="node4" class="node">
<title>fourth</title>
<ellipse fill="none" stroke="black" cx="504.36" cy="-24.04" rx="27" ry="24.08"/>
<text text-anchor="middle" x="504.36" y="-17.84" font-family="roboto" font-size="24.00">9</text>
</g>
<!-- third&#45;&gt;fourth -->
<g id="edge3" class="edge">
<title>third&#45;&gt;fourth</title>
<path fill="none" stroke="black" stroke-width="3" d="M431.48,-24.04C447.33,-24.04 463.98,-24.04 477.25,-24.04"/>
<text text-anchor="middle" x="454.36" y="-30.84" font-family="roboto" font-size="24.00">(</text>
</g>
<!-- fifth -->
<g id="node5" class="node">
<title>fifth</title>
<ellipse fill="none" stroke="black" cx="720.2" cy="-24.04" rx="43.68" ry="24.08"/>
<text text-anchor="middle" x="720.2" y="-17.84" font-family="roboto" font-size="24.00">579</text>
</g>
<!-- fourth&#45;&gt;fifth -->
<g id="edge4" class="edge">
<title>fourth&#45;&gt;fifth</title>
<path fill="none" stroke="black" stroke-width="3" d="M531.58,-24.04C567.61,-24.04 632.85,-24.04 676.11,-24.04"/>
<text text-anchor="middle" x="603.86" y="-30.84" font-family="roboto" font-size="24.00">identifier</text>
</g>
</g>
</svg>
