<?xml version="1.0" encoding="UTF-8" standalone="no"?>
<!DOCTYPE svg PUBLIC "-//W3C//DTD SVG 1.1//EN"
 "http://www.w3.org/Graphics/SVG/1.1/DTD/svg11.dtd">
<!-- Generated by graphviz version 2.43.0 (0)
 -->
<!-- Title: treeSitterIncremental0 Pages: 1 -->
<svg width="1332pt" height="308pt"
 viewBox="0.00 0.00 1331.63 308.33" xmlns="http://www.w3.org/2000/svg" xmlns:xlink="http://www.w3.org/1999/xlink">
<g id="graph0" class="graph" transform="scale(1 1) rotate(0) translate(4 304.33)">
<title>treeSitterIncremental0</title>
<polygon fill="white" stroke="transparent" points="-4,4 -4,-304.33 1327.63,-304.33 1327.63,4 -4,4"/>
<!-- program -->
<g id="node1" class="node">
<title>program</title>
<ellipse fill="none" stroke="black" stroke-width="3" cx="875.39" cy="-276.29" rx="84.29" ry="24.08"/>
<text text-anchor="middle" x="875.39" y="-270.09" font-family="roboto" font-size="24.00">program</text>
</g>
<!-- assignment -->
<g id="node2" class="node">
<title>assignment</title>
<ellipse fill="none" stroke="black" stroke-width="3" cx="368.39" cy="-192.21" rx="111.03" ry="24.08"/>
<text text-anchor="middle" x="368.39" y="-186.01" font-family="roboto" font-size="24.00">assignment</text>
</g>
<!-- program&#45;&gt;assignment -->
<g id="edge1" class="edge">
<title>program&#45;&gt;assignment</title>
<path fill="none" stroke="black" stroke-width="3" d="M803.55,-263.66C711.91,-248.82 553.51,-223.18 455.2,-207.26"/>
</g>
<!-- call_expression -->
<g id="node3" class="node">
<title>call_expression</title>
<ellipse fill="none" stroke="black" stroke-width="3" cx="715.39" cy="-192.21" rx="141.34" ry="24.08"/>
<text text-anchor="middle" x="715.39" y="-186.01" font-family="roboto" font-size="24.00">call_expression</text>
</g>
<!-- program&#45;&gt;call_expression -->
<g id="edge2" class="edge">
<title>program&#45;&gt;call_expression</title>
<path fill="none" stroke="black" stroke-width="3" d="M835.84,-255C812.24,-242.9 782.27,-227.52 758.13,-215.14"/>
</g>
<!-- return -->
<g id="node4" class="node">
<title>return</title>
<ellipse fill="none" stroke="black" stroke-width="3" cx="1035.39" cy="-192.21" rx="160.53" ry="24.08"/>
<text text-anchor="middle" x="1035.39" y="-186.01" font-family="roboto" font-size="24.00">return_statement</text>
</g>
<!-- program&#45;&gt;return -->
<g id="edge3" class="edge">
<title>program&#45;&gt;return</title>
<path fill="none" stroke="black" stroke-width="3" d="M914.94,-255C938.35,-242.99 968.04,-227.76 992.08,-215.43"/>
</g>
<!-- end -->
<g id="node5" class="node">
<title>end</title>
<text text-anchor="middle" x="1248.39" y="-186.01" font-family="roboto" font-size="24.00">END</text>
</g>
<!-- program&#45;&gt;end -->
<g id="edge4" class="edge">
<title>program&#45;&gt;end</title>
<path fill="none" stroke="black" stroke-width="3" d="M954.84,-268.16C1022.81,-260.41 1122.51,-245.05 1205.39,-216.25 1210.03,-214.64 1214.77,-212.57 1219.34,-210.34"/>
</g>
<!-- variable_declaration -->
<g id="node6" class="node">
<title>variable_declaration</title>
<ellipse fill="none" stroke="black" stroke-width="3" cx="291.39" cy="-108.12" rx="185.94" ry="24.08"/>
<text text-anchor="middle" x="291.39" y="-101.92" font-family="roboto" font-size="24.00">variable_declaration</text>
</g>
<!-- assignment&#45;&gt;variable_declaration -->
<g id="edge5" class="edge">
<title>assignment&#45;&gt;variable_declaration</title>
<path fill="none" stroke="black" stroke-width="3" d="M346.94,-168.34C336.35,-157.05 323.6,-143.46 312.99,-132.15"/>
</g>
<!-- method_call -->
<g id="node9" class="node">
<title>method_call</title>
<ellipse fill="none" stroke="black" stroke-width="3" cx="611.39" cy="-108.12" rx="115.93" ry="24.08"/>
<text text-anchor="middle" x="611.39" y="-101.92" font-family="roboto" font-size="24.00">method_call</text>
</g>
<!-- call_expression&#45;&gt;method_call -->
<g id="edge8" class="edge">
<title>call_expression&#45;&gt;method_call</title>
<path fill="none" stroke="black" stroke-width="3" d="M686.69,-168.56C672.14,-157.08 654.53,-143.17 639.99,-131.7"/>
</g>
<!-- arguments -->
<g id="node10" class="node">
<title>arguments</title>
<ellipse fill="none" stroke="black" stroke-width="3" cx="849.39" cy="-108.12" rx="103.89" ry="24.08"/>
<text text-anchor="middle" x="849.39" y="-101.92" font-family="roboto" font-size="24.00">arguments</text>
</g>
<!-- call_expression&#45;&gt;arguments -->
<g id="edge9" class="edge">
<title>call_expression&#45;&gt;arguments</title>
<path fill="none" stroke="black" stroke-width="3" d="M752,-168.78C771.22,-157.01 794.67,-142.64 813.74,-130.96"/>
</g>
<!-- return_keyword -->
<g id="node15" class="node">
<title>return_keyword</title>
<ellipse fill="none" stroke="black" stroke-width="3" cx="1035.39" cy="-108.12" rx="63.78" ry="24.08"/>
<text text-anchor="middle" x="1035.39" y="-101.92" font-family="roboto" font-size="24.00">return</text>
</g>
<!-- return&#45;&gt;return_keyword -->
<g id="edge14" class="edge">
<title>return&#45;&gt;return_keyword</title>
<path fill="none" stroke="black" stroke-width="3" d="M1035.39,-167.91C1035.39,-156.72 1035.39,-143.36 1035.39,-132.2"/>
</g>
<!-- return_expression -->
<g id="node16" class="node">
<title>return_expression</title>
<ellipse fill="none" stroke="black" stroke-width="3" cx="1220.39" cy="-108.12" rx="103.48" ry="24.08"/>
<text text-anchor="middle" x="1220.39" y="-101.92" font-family="roboto" font-size="24.00">expression</text>
</g>
<!-- return&#45;&gt;return_expression -->
<g id="edge15" class="edge">
<title>return&#45;&gt;return_expression</title>
<path fill="none" stroke="black" stroke-width="3" d="M1084.96,-169.21C1112.69,-156.91 1147.01,-141.68 1174.17,-129.63"/>
</g>
<!-- var_identifier -->
<g id="node7" class="node">
<title>var_identifier</title>
<ellipse fill="none" stroke="black" stroke-width="3" cx="88.39" cy="-24.04" rx="88.28" ry="24.08"/>
<text text-anchor="middle" x="88.39" y="-17.84" font-family="roboto" font-size="24.00">identifier</text>
</g>
<!-- variable_declaration&#45;&gt;var_identifier -->
<g id="edge6" class="edge">
<title>variable_declaration&#45;&gt;var_identifier</title>
<path fill="none" stroke="black" stroke-width="3" d="M236.99,-85.13C205.51,-72.4 166.27,-56.53 136.02,-44.3"/>
</g>
<!-- expression1 -->
<g id="node8" class="node">
<title>expression1</title>
<ellipse fill="none" stroke="black" stroke-width="3" cx="298.39" cy="-24.04" rx="103.48" ry="24.08"/>
<text text-anchor="middle" x="298.39" y="-17.84" font-family="roboto" font-size="24.00">expression</text>
</g>
<!-- variable_declaration&#45;&gt;expression1 -->
<g id="edge7" class="edge">
<title>variable_declaration&#45;&gt;expression1</title>
<path fill="none" stroke="black" stroke-width="3" d="M293.38,-83.82C294.33,-72.64 295.47,-59.27 296.42,-48.12"/>
</g>
<!-- receiver -->
<g id="node11" class="node">
<title>receiver</title>
<ellipse fill="none" stroke="black" stroke-width="3" cx="528.39" cy="-24.04" rx="81.13" ry="24.08"/>
<text text-anchor="middle" x="528.39" y="-17.84" font-family="roboto" font-size="24.00">receiver</text>
</g>
<!-- method_call&#45;&gt;receiver -->
<g id="edge10" class="edge">
<title>method_call&#45;&gt;receiver</title>
<path fill="none" stroke="black" stroke-width="3" d="M588.27,-84.26C576.56,-72.69 562.42,-58.69 550.81,-47.22"/>
</g>
<!-- method -->
<g id="node12" class="node">
<title>method</title>
<ellipse fill="none" stroke="black" stroke-width="3" cx="705.39" cy="-24.04" rx="77.56" ry="24.08"/>
<text text-anchor="middle" x="705.39" y="-17.84" font-family="roboto" font-size="24.00">method</text>
</g>
<!-- method_call&#45;&gt;method -->
<g id="edge11" class="edge">
<title>method_call&#45;&gt;method</title>
<path fill="none" stroke="black" stroke-width="3" d="M637.32,-84.48C650.69,-72.8 666.93,-58.63 680.19,-47.05"/>
</g>
<!-- open_p -->
<g id="node13" class="node">
<title>open_p</title>
<ellipse fill="none" stroke="black" stroke-width="3" cx="842.39" cy="-24.04" rx="27" ry="24.08"/>
<text text-anchor="middle" x="842.39" y="-17.84" font-family="roboto" font-size="24.00">(</text>
</g>
<!-- arguments&#45;&gt;open_p -->
<g id="edge12" class="edge">
<title>arguments&#45;&gt;open_p</title>
<path fill="none" stroke="black" stroke-width="3" d="M847.4,-83.82C846.45,-72.64 845.31,-59.27 844.36,-48.12"/>
</g>
<!-- close_p -->
<g id="node14" class="node">
<title>close_p</title>
<ellipse fill="none" stroke="black" stroke-width="3" cx="914.39" cy="-24.04" rx="27" ry="24.08"/>
<text text-anchor="middle" x="914.39" y="-17.84" font-family="roboto" font-size="24.00">)</text>
</g>
<!-- arguments&#45;&gt;close_p -->
<g id="edge13" class="edge">
<title>arguments&#45;&gt;close_p</title>
<path fill="none" stroke="black" stroke-width="3" d="M867.49,-84.26C877.49,-71.64 889.75,-56.15 899.23,-44.18"/>
</g>
<!-- return_a -->
<g id="node17" class="node">
<title>return_a</title>
<ellipse fill="none" stroke="black" stroke-width="3" cx="1220.39" cy="-24.04" rx="88.28" ry="24.08"/>
<text text-anchor="middle" x="1220.39" y="-17.84" font-family="roboto" font-size="24.00">identifier</text>
</g>
<!-- return_expression&#45;&gt;return_a -->
<g id="edge16" class="edge">
<title>return_expression&#45;&gt;return_a</title>
<path fill="none" stroke="black" stroke-width="3" d="M1220.39,-83.82C1220.39,-72.64 1220.39,-59.27 1220.39,-48.12"/>
</g>
</g>
</svg>
