<?xml version="1.0" encoding="UTF-8" standalone="no"?>
<!DOCTYPE svg PUBLIC "-//W3C//DTD SVG 1.1//EN"
 "http://www.w3.org/Graphics/SVG/1.1/DTD/svg11.dtd">
<!-- Generated by graphviz version 2.43.0 (0)
 -->
<!-- Title: treeSitterParse3 Pages: 1 -->
<svg width="166pt" height="208pt"
 viewBox="0.00 0.00 166.00 208.17" xmlns="http://www.w3.org/2000/svg" xmlns:xlink="http://www.w3.org/1999/xlink">
<g id="graph0" class="graph" transform="scale(1 1) rotate(0) translate(4 204.17)">
<title>treeSitterParse3</title>
<polygon fill="white" stroke="transparent" points="-4,4 -4,-204.17 162,-204.17 162,4 -4,4"/>
<g id="clust1" class="cluster">
<title>cluster_1</title>
<polygon fill="none" stroke="black" points="8,-8 8,-192.17 150,-192.17 150,-8 8,-8"/>
</g>
<!-- v1 -->
<g id="node1" class="node">
<title>v1</title>
<ellipse fill="none" stroke="black" cx="43" cy="-40.04" rx="27" ry="24.08"/>
<text text-anchor="middle" x="43" y="-33.84" font-family="roboto" font-size="24.00">x</text>
</g>
<!-- product -->
<g id="node2" class="node">
<title>product</title>
<ellipse fill="none" stroke="black" cx="79" cy="-160.12" rx="27" ry="24.08"/>
<text text-anchor="middle" x="79" y="-153.92" font-family="roboto" font-size="24.00">*</text>
</g>
<!-- product&#45;&gt;v1 -->
<g id="edge1" class="edge">
<title>product&#45;&gt;v1</title>
<path fill="none" stroke="black" stroke-width="3" d="M72.14,-136.64C66.66,-118.66 58.91,-93.24 52.78,-73.12"/>
<polygon fill="black" stroke="black" stroke-width="3" points="56.09,-71.99 49.83,-63.45 49.4,-74.03 56.09,-71.99"/>
</g>
<!-- v2 -->
<g id="node3" class="node">
<title>v2</title>
<ellipse fill="none" stroke="black" cx="115" cy="-40.04" rx="27" ry="24.08"/>
<text text-anchor="middle" x="115" y="-33.84" font-family="roboto" font-size="24.00">y</text>
</g>
<!-- product&#45;&gt;v2 -->
<g id="edge2" class="edge">
<title>product&#45;&gt;v2</title>
<path fill="none" stroke="black" stroke-width="3" d="M85.86,-136.64C91.34,-118.66 99.09,-93.24 105.22,-73.12"/>
<polygon fill="black" stroke="black" stroke-width="3" points="108.6,-74.03 108.17,-63.45 101.91,-71.99 108.6,-74.03"/>
</g>
</g>
</svg>
