<?xml version="1.0" encoding="UTF-8" standalone="no"?>
<!DOCTYPE svg PUBLIC "-//W3C//DTD SVG 1.1//EN"
 "http://www.w3.org/Graphics/SVG/1.1/DTD/svg11.dtd">
<!-- Generated by graphviz version 2.43.0 (0)
 -->
<!-- Title: treeSitterIncremental1 Pages: 1 -->
<svg width="1369pt" height="308pt"
 viewBox="0.00 0.00 1368.63 308.33" xmlns="http://www.w3.org/2000/svg" xmlns:xlink="http://www.w3.org/1999/xlink">
<g id="graph0" class="graph" transform="scale(1 1) rotate(0) translate(4 304.33)">
<title>treeSitterIncremental1</title>
<polygon fill="white" stroke="transparent" points="-4,4 -4,-304.33 1364.63,-304.33 1364.63,4 -4,4"/>
<!-- program -->
<g id="node1" class="node">
<title>program</title>
<ellipse fill="none" stroke="darkgreen" stroke-width="3" cx="912.39" cy="-276.29" rx="84.29" ry="24.08"/>
<text text-anchor="middle" x="912.39" y="-270.09" font-family="roboto" font-size="24.00">program</text>
</g>
<!-- assignment -->
<g id="node2" class="node">
<title>assignment</title>
<ellipse fill="none" stroke="black" stroke-width="3" cx="405.39" cy="-192.21" rx="111.03" ry="24.08"/>
<text text-anchor="middle" x="405.39" y="-186.01" font-family="roboto" font-size="24.00">assignment</text>
</g>
<!-- program&#45;&gt;assignment -->
<g id="edge1" class="edge">
<title>program&#45;&gt;assignment</title>
<path fill="none" stroke="black" stroke-width="3" d="M840.55,-263.66C748.91,-248.82 590.51,-223.18 492.2,-207.26"/>
</g>
<!-- call_expression -->
<g id="node3" class="node">
<title>call_expression</title>
<ellipse fill="none" stroke="darkgreen" stroke-width="3" cx="752.39" cy="-192.21" rx="141.34" ry="24.08"/>
<text text-anchor="middle" x="752.39" y="-186.01" font-family="roboto" font-size="24.00">call_expression</text>
</g>
<!-- program&#45;&gt;call_expression -->
<g id="edge2" class="edge">
<title>program&#45;&gt;call_expression</title>
<path fill="none" stroke="black" stroke-width="3" d="M872.84,-255C849.24,-242.9 819.27,-227.52 795.13,-215.14"/>
</g>
<!-- return -->
<g id="node4" class="node">
<title>return</title>
<ellipse fill="none" stroke="black" stroke-width="3" cx="1072.39" cy="-192.21" rx="160.53" ry="24.08"/>
<text text-anchor="middle" x="1072.39" y="-186.01" font-family="roboto" font-size="24.00">return_statement</text>
</g>
<!-- program&#45;&gt;return -->
<g id="edge3" class="edge">
<title>program&#45;&gt;return</title>
<path fill="none" stroke="black" stroke-width="3" d="M951.94,-255C975.35,-242.99 1005.04,-227.76 1029.08,-215.43"/>
</g>
<!-- end -->
<g id="node5" class="node">
<title>end</title>
<text text-anchor="middle" x="1285.39" y="-186.01" font-family="roboto" font-size="24.00">END</text>
</g>
<!-- program&#45;&gt;end -->
<g id="edge4" class="edge">
<title>program&#45;&gt;end</title>
<path fill="none" stroke="black" stroke-width="3" d="M991.84,-268.16C1059.81,-260.41 1159.51,-245.05 1242.39,-216.25 1247.03,-214.64 1251.77,-212.57 1256.34,-210.34"/>
</g>
<!-- variable_declaration -->
<g id="node6" class="node">
<title>variable_declaration</title>
<ellipse fill="none" stroke="black" stroke-width="3" cx="298.39" cy="-108.12" rx="185.94" ry="24.08"/>
<text text-anchor="middle" x="298.39" y="-101.92" font-family="roboto" font-size="24.00">variable_declaration</text>
</g>
<!-- assignment&#45;&gt;variable_declaration -->
<g id="edge5" class="edge">
<title>assignment&#45;&gt;variable_declaration</title>
<path fill="none" stroke="black" stroke-width="3" d="M376.43,-169C361.45,-157.51 343.2,-143.5 328.11,-131.93"/>
</g>
<!-- method_call -->
<g id="node9" class="node">
<title>method_call</title>
<ellipse fill="none" stroke="black" stroke-width="3" cx="648.39" cy="-108.12" rx="115.93" ry="24.08"/>
<text text-anchor="middle" x="648.39" y="-101.92" font-family="roboto" font-size="24.00">method_call</text>
</g>
<!-- call_expression&#45;&gt;method_call -->
<g id="edge8" class="edge">
<title>call_expression&#45;&gt;method_call</title>
<path fill="none" stroke="black" stroke-width="3" d="M723.69,-168.56C709.14,-157.08 691.53,-143.17 676.99,-131.7"/>
</g>
<!-- arguments -->
<g id="node10" class="node">
<title>arguments</title>
<ellipse fill="none" stroke="darkgreen" stroke-width="3" cx="886.39" cy="-108.12" rx="103.89" ry="24.08"/>
<text text-anchor="middle" x="886.39" y="-101.92" font-family="roboto" font-size="24.00">arguments</text>
</g>
<!-- call_expression&#45;&gt;arguments -->
<g id="edge9" class="edge">
<title>call_expression&#45;&gt;arguments</title>
<path fill="none" stroke="black" stroke-width="3" d="M789,-168.78C808.22,-157.01 831.67,-142.64 850.74,-130.96"/>
</g>
<!-- return_keyword -->
<g id="node16" class="node">
<title>return_keyword</title>
<ellipse fill="none" stroke="black" stroke-width="3" cx="1072.39" cy="-108.12" rx="63.78" ry="24.08"/>
<text text-anchor="middle" x="1072.39" y="-101.92" font-family="roboto" font-size="24.00">return</text>
</g>
<!-- return&#45;&gt;return_keyword -->
<g id="edge15" class="edge">
<title>return&#45;&gt;return_keyword</title>
<path fill="none" stroke="black" stroke-width="3" d="M1072.39,-167.91C1072.39,-156.72 1072.39,-143.36 1072.39,-132.2"/>
</g>
<!-- return_expression -->
<g id="node17" class="node">
<title>return_expression</title>
<ellipse fill="none" stroke="black" stroke-width="3" cx="1257.39" cy="-108.12" rx="103.48" ry="24.08"/>
<text text-anchor="middle" x="1257.39" y="-101.92" font-family="roboto" font-size="24.00">expression</text>
</g>
<!-- return&#45;&gt;return_expression -->
<g id="edge16" class="edge">
<title>return&#45;&gt;return_expression</title>
<path fill="none" stroke="black" stroke-width="3" d="M1121.96,-169.21C1149.69,-156.91 1184.01,-141.68 1211.17,-129.63"/>
</g>
<!-- var_identifier -->
<g id="node7" class="node">
<title>var_identifier</title>
<ellipse fill="none" stroke="black" stroke-width="3" cx="88.39" cy="-24.04" rx="88.28" ry="24.08"/>
<text text-anchor="middle" x="88.39" y="-17.84" font-family="roboto" font-size="24.00">identifier</text>
</g>
<!-- variable_declaration&#45;&gt;var_identifier -->
<g id="edge6" class="edge">
<title>variable_declaration&#45;&gt;var_identifier</title>
<path fill="none" stroke="black" stroke-width="3" d="M242.11,-85.13C209.43,-72.35 168.66,-56.42 137.32,-44.17"/>
</g>
<!-- expression1 -->
<g id="node8" class="node">
<title>expression1</title>
<ellipse fill="none" stroke="black" stroke-width="3" cx="298.39" cy="-24.04" rx="103.48" ry="24.08"/>
<text text-anchor="middle" x="298.39" y="-17.84" font-family="roboto" font-size="24.00">expression</text>
</g>
<!-- variable_declaration&#45;&gt;expression1 -->
<g id="edge7" class="edge">
<title>variable_declaration&#45;&gt;expression1</title>
<path fill="none" stroke="black" stroke-width="3" d="M298.39,-83.82C298.39,-72.64 298.39,-59.27 298.39,-48.12"/>
</g>
<!-- receiver -->
<g id="node11" class="node">
<title>receiver</title>
<ellipse fill="none" stroke="black" stroke-width="3" cx="501.39" cy="-24.04" rx="81.13" ry="24.08"/>
<text text-anchor="middle" x="501.39" y="-17.84" font-family="roboto" font-size="24.00">receiver</text>
</g>
<!-- method_call&#45;&gt;receiver -->
<g id="edge10" class="edge">
<title>method_call&#45;&gt;receiver</title>
<path fill="none" stroke="black" stroke-width="3" d="M609.38,-85.34C587.27,-72.99 559.76,-57.64 538.05,-45.51"/>
</g>
<!-- method -->
<g id="node12" class="node">
<title>method</title>
<ellipse fill="none" stroke="black" stroke-width="3" cx="678.39" cy="-24.04" rx="77.56" ry="24.08"/>
<text text-anchor="middle" x="678.39" y="-17.84" font-family="roboto" font-size="24.00">method</text>
</g>
<!-- method_call&#45;&gt;method -->
<g id="edge11" class="edge">
<title>method_call&#45;&gt;method</title>
<path fill="none" stroke="black" stroke-width="3" d="M656.9,-83.82C660.99,-72.64 665.88,-59.27 669.95,-48.12"/>
</g>
<!-- open_p -->
<g id="node13" class="node">
<title>open_p</title>
<ellipse fill="none" stroke="black" stroke-width="3" cx="801.39" cy="-24.04" rx="27" ry="24.08"/>
<text text-anchor="middle" x="801.39" y="-17.84" font-family="roboto" font-size="24.00">(</text>
</g>
<!-- arguments&#45;&gt;open_p -->
<g id="edge12" class="edge">
<title>arguments&#45;&gt;open_p</title>
<path fill="none" stroke="black" stroke-width="3" d="M862.71,-84.26C848.96,-70.98 831.91,-54.51 819.28,-42.32"/>
</g>
<!-- argument -->
<g id="node14" class="node">
<title>argument</title>
<ellipse fill="none" stroke="darkgreen" stroke-width="3" cx="934.39" cy="-24.04" rx="88.28" ry="24.08"/>
<text text-anchor="middle" x="934.39" y="-17.84" font-family="roboto" font-size="24.00">identifier</text>
</g>
<!-- arguments&#45;&gt;argument -->
<g id="edge13" class="edge">
<title>arguments&#45;&gt;argument</title>
<path fill="none" stroke="black" stroke-width="3" d="M899.76,-84.26C906.36,-72.97 914.31,-59.38 920.92,-48.07"/>
</g>
<!-- close_p -->
<g id="node15" class="node">
<title>close_p</title>
<ellipse fill="none" stroke="black" stroke-width="3" cx="1067.39" cy="-24.04" rx="27" ry="24.08"/>
<text text-anchor="middle" x="1067.39" y="-17.84" font-family="roboto" font-size="24.00">)</text>
</g>
<!-- arguments&#45;&gt;close_p -->
<g id="edge14" class="edge">
<title>arguments&#45;&gt;close_p</title>
<path fill="none" stroke="black" stroke-width="3" d="M941.16,-87.54C968.76,-77 1002.43,-63.09 1031.39,-48.08 1036.4,-45.49 1041.6,-42.4 1046.45,-39.35"/>
</g>
<!-- return_a -->
<g id="node18" class="node">
<title>return_a</title>
<ellipse fill="none" stroke="black" stroke-width="3" cx="1257.39" cy="-24.04" rx="88.28" ry="24.08"/>
<text text-anchor="middle" x="1257.39" y="-17.84" font-family="roboto" font-size="24.00">identifier</text>
</g>
<!-- return_expression&#45;&gt;return_a -->
<g id="edge17" class="edge">
<title>return_expression&#45;&gt;return_a</title>
<path fill="none" stroke="black" stroke-width="3" d="M1257.39,-83.82C1257.39,-72.64 1257.39,-59.27 1257.39,-48.12"/>
</g>
</g>
</svg>
