<?xml version="1.0" encoding="UTF-8" standalone="no"?>
<!DOCTYPE svg PUBLIC "-//W3C//DTD SVG 1.1//EN"
 "http://www.w3.org/Graphics/SVG/1.1/DTD/svg11.dtd">
<!-- Generated by graphviz version 2.43.0 (0)
 -->
<!-- Title: treeSitterGLRError0 Pages: 1 -->
<svg width="493pt" height="224pt"
 viewBox="0.00 0.00 492.71 224.25" xmlns="http://www.w3.org/2000/svg" xmlns:xlink="http://www.w3.org/1999/xlink">
<g id="graph0" class="graph" transform="scale(1 1) rotate(0) translate(4 220.25)">
<title>treeSitterGLRError0</title>
<polygon fill="white" stroke="transparent" points="-4,4 -4,-220.25 488.71,-220.25 488.71,4 -4,4"/>
<!-- program -->
<g id="node1" class="node">
<title>program</title>
<ellipse fill="none" stroke="black" cx="278.71" cy="-192.21" rx="84.29" ry="24.08"/>
<text text-anchor="middle" x="278.71" y="-186.01" font-family="roboto" font-size="24.00">program</text>
</g>
<!-- error -->
<g id="node2" class="node">
<title>error</title>
<ellipse fill="none" stroke="black" cx="70.71" cy="-108.12" rx="70.92" ry="24.08"/>
<text text-anchor="middle" x="70.71" y="-101.92" font-family="roboto" font-size="24.00">ERROR</text>
</g>
<!-- program&#45;&gt;error -->
<g id="edge1" class="edge">
<title>program&#45;&gt;error</title>
<path fill="none" stroke="black" stroke-width="3" d="M230.99,-172.38C196.33,-158.7 149.73,-140.31 115.71,-126.88"/>
</g>
<!-- if -->
<g id="node3" class="node">
<title>if</title>
<ellipse fill="none" stroke="black" cx="278.71" cy="-108.12" rx="119.5" ry="24.08"/>
<text text-anchor="middle" x="278.71" y="-101.92" font-family="roboto" font-size="24.00">if_statement</text>
</g>
<!-- program&#45;&gt;if -->
<g id="edge2" class="edge">
<title>program&#45;&gt;if</title>
<path fill="none" stroke="black" stroke-width="3" d="M278.71,-167.91C278.71,-156.72 278.71,-143.36 278.71,-132.2"/>
</g>
<!-- end -->
<g id="node4" class="node">
<title>end</title>
<text text-anchor="middle" x="450.71" y="-101.92" font-family="roboto" font-size="24.00">END</text>
</g>
<!-- program&#45;&gt;end -->
<g id="edge3" class="edge">
<title>program&#45;&gt;end</title>
<path fill="none" stroke="black" stroke-width="3" d="M323.22,-171.67C348.23,-160.48 379.91,-145.96 407.71,-132.17 411.5,-130.28 415.46,-128.26 419.36,-126.22"/>
</g>
<!-- for -->
<g id="node5" class="node">
<title>for</title>
<ellipse fill="none" stroke="black" cx="70.71" cy="-24.04" rx="35.21" ry="24.08"/>
<text text-anchor="middle" x="70.71" y="-17.84" font-family="roboto" font-size="24.00">for</text>
</g>
<!-- error&#45;&gt;for -->
<g id="edge4" class="edge">
<title>error&#45;&gt;for</title>
<path fill="none" stroke="black" stroke-width="3" d="M70.71,-83.82C70.71,-72.64 70.71,-59.27 70.71,-48.12"/>
</g>
<!-- etc -->
<g id="node6" class="node">
<title>etc</title>
<ellipse fill="none" stroke="black" cx="278.71" cy="-24.04" rx="120.83" ry="24.08"/>
<text text-anchor="middle" x="278.71" y="-17.84" font-family="roboto" font-size="24.00">... omitted ...</text>
</g>
<!-- if&#45;&gt;etc -->
<g id="edge5" class="edge">
<title>if&#45;&gt;etc</title>
<path fill="none" stroke="black" stroke-width="3" d="M278.71,-83.82C278.71,-72.64 278.71,-59.27 278.71,-48.12"/>
</g>
</g>
</svg>
