<?xml version="1.0" encoding="UTF-8" standalone="no"?>
<!DOCTYPE svg PUBLIC "-//W3C//DTD SVG 1.1//EN"
 "http://www.w3.org/Graphics/SVG/1.1/DTD/svg11.dtd">
<!-- Generated by graphviz version 2.43.0 (0)
 -->
<!-- Title: treeSitterParse6 Pages: 1 -->
<svg width="166pt" height="328pt"
 viewBox="0.00 0.00 166.00 328.25" xmlns="http://www.w3.org/2000/svg" xmlns:xlink="http://www.w3.org/1999/xlink">
<g id="graph0" class="graph" transform="scale(1 1) rotate(0) translate(4 324.25)">
<title>treeSitterParse6</title>
<polygon fill="white" stroke="transparent" points="-4,4 -4,-324.25 162,-324.25 162,4 -4,4"/>
<g id="clust1" class="cluster">
<title>cluster_1</title>
<polygon fill="none" stroke="black" points="8,-8 8,-312.25 150,-312.25 150,-8 8,-8"/>
</g>
<!-- plus -->
<g id="node1" class="node">
<title>plus</title>
<ellipse fill="none" stroke="black" cx="79" cy="-280.21" rx="27" ry="24.08"/>
<text text-anchor="middle" x="79" y="-274.01" font-family="roboto" font-size="24.00">+</text>
</g>
<!-- product -->
<g id="node2" class="node">
<title>product</title>
<ellipse fill="none" stroke="black" cx="43" cy="-160.12" rx="27" ry="24.08"/>
<text text-anchor="middle" x="43" y="-153.92" font-family="roboto" font-size="24.00">*</text>
</g>
<!-- plus&#45;&gt;product -->
<g id="edge1" class="edge">
<title>plus&#45;&gt;product</title>
<path fill="none" stroke="black" stroke-width="3" d="M72.14,-256.72C66.66,-238.74 58.91,-213.32 52.78,-193.21"/>
<polygon fill="black" stroke="black" stroke-width="3" points="56.09,-192.07 49.83,-183.53 49.4,-194.12 56.09,-192.07"/>
</g>
<!-- v3 -->
<g id="node3" class="node">
<title>v3</title>
<ellipse fill="none" stroke="black" cx="115" cy="-160.12" rx="27" ry="24.08"/>
<text text-anchor="middle" x="115" y="-153.92" font-family="roboto" font-size="24.00">z</text>
</g>
<!-- plus&#45;&gt;v3 -->
<g id="edge2" class="edge">
<title>plus&#45;&gt;v3</title>
<path fill="none" stroke="black" stroke-width="3" d="M85.86,-256.72C91.34,-238.74 99.09,-213.32 105.22,-193.21"/>
<polygon fill="black" stroke="black" stroke-width="3" points="108.6,-194.12 108.17,-183.53 101.91,-192.07 108.6,-194.12"/>
</g>
<!-- v1 -->
<g id="node4" class="node">
<title>v1</title>
<ellipse fill="none" stroke="black" cx="43" cy="-40.04" rx="27" ry="24.08"/>
<text text-anchor="middle" x="43" y="-33.84" font-family="roboto" font-size="24.00">x</text>
</g>
<!-- product&#45;&gt;v1 -->
<g id="edge3" class="edge">
<title>product&#45;&gt;v1</title>
<path fill="none" stroke="black" stroke-width="3" d="M43,-136.08C43,-118.55 43,-94.19 43,-74.52"/>
<polygon fill="black" stroke="black" stroke-width="3" points="46.5,-74.43 43,-64.44 39.5,-74.44 46.5,-74.43"/>
</g>
<!-- v2 -->
<g id="node5" class="node">
<title>v2</title>
<ellipse fill="none" stroke="black" cx="115" cy="-40.04" rx="27" ry="24.08"/>
<text text-anchor="middle" x="115" y="-33.84" font-family="roboto" font-size="24.00">y</text>
</g>
<!-- product&#45;&gt;v2 -->
<g id="edge4" class="edge">
<title>product&#45;&gt;v2</title>
<path fill="none" stroke="black" stroke-width="3" d="M55.54,-138.56C67.03,-119.71 84.18,-91.59 97.11,-70.39"/>
<polygon fill="black" stroke="black" stroke-width="3" points="100.14,-72.13 102.36,-61.77 94.17,-68.49 100.14,-72.13"/>
</g>
</g>
</svg>
