<?xml version="1.0" encoding="UTF-8" standalone="no"?>
<!DOCTYPE svg PUBLIC "-//W3C//DTD SVG 1.1//EN"
 "http://www.w3.org/Graphics/SVG/1.1/DTD/svg11.dtd">
<!-- Generated by graphviz version 2.43.0 (0)
 -->
<!-- Title: treeSitterParse5 Pages: 1 -->
<svg width="292pt" height="208pt"
 viewBox="0.00 0.00 292.00 208.17" xmlns="http://www.w3.org/2000/svg" xmlns:xlink="http://www.w3.org/1999/xlink">
<g id="graph0" class="graph" transform="scale(1 1) rotate(0) translate(4 204.17)">
<title>treeSitterParse5</title>
<polygon fill="white" stroke="transparent" points="-4,4 -4,-204.17 288,-204.17 288,4 -4,4"/>
<g id="clust1" class="cluster">
<title>cluster_1</title>
<polygon fill="none" stroke="black" points="8,-8 8,-192.17 150,-192.17 150,-8 8,-8"/>
</g>
<!-- v1 -->
<g id="node1" class="node">
<title>v1</title>
<ellipse fill="none" stroke="black" cx="43" cy="-40.04" rx="27" ry="24.08"/>
<text text-anchor="middle" x="43" y="-33.84" font-family="roboto" font-size="24.00">x</text>
</g>
<!-- product -->
<g id="node2" class="node">
<title>product</title>
<ellipse fill="none" stroke="black" cx="78" cy="-160.12" rx="27" ry="24.08"/>
<text text-anchor="middle" x="78" y="-153.92" font-family="roboto" font-size="24.00">*</text>
</g>
<!-- product&#45;&gt;v1 -->
<g id="edge1" class="edge">
<title>product&#45;&gt;v1</title>
<path fill="none" stroke="black" stroke-width="3" d="M71.33,-136.64C66.01,-118.66 58.47,-93.24 52.51,-73.12"/>
<polygon fill="black" stroke="black" stroke-width="3" points="55.84,-72.04 49.64,-63.45 49.13,-74.03 55.84,-72.04"/>
</g>
<!-- v2 -->
<g id="node3" class="node">
<title>v2</title>
<ellipse fill="none" stroke="black" cx="115" cy="-40.04" rx="27" ry="24.08"/>
<text text-anchor="middle" x="115" y="-33.84" font-family="roboto" font-size="24.00">y</text>
</g>
<!-- product&#45;&gt;v2 -->
<g id="edge2" class="edge">
<title>product&#45;&gt;v2</title>
<path fill="none" stroke="black" stroke-width="3" d="M85.05,-136.64C90.68,-118.66 98.65,-93.24 104.95,-73.12"/>
<polygon fill="black" stroke="black" stroke-width="3" points="108.33,-74.04 107.98,-63.45 101.65,-71.94 108.33,-74.04"/>
</g>
<!-- plus -->
<g id="node4" class="node">
<title>plus</title>
<polygon fill="none" stroke="black" points="212,-178.12 158,-178.12 158,-142.12 212,-142.12 212,-178.12"/>
<text text-anchor="middle" x="185" y="-153.92" font-family="roboto" font-size="24.00">+</text>
</g>
<!-- v3 -->
<g id="node5" class="node">
<title>v3</title>
<polygon fill="none" stroke="black" points="284,-178.12 230,-178.12 230,-142.12 284,-142.12 284,-178.12"/>
<text text-anchor="middle" x="257" y="-153.92" font-family="roboto" font-size="24.00">z</text>
</g>
</g>
</svg>
